<?xml version="1.0" encoding="UTF-8"?>
<svg width="55px" height="35px" viewBox="0 0 55 35" version="1.1" xmlns="http://www.w3.org/2000/svg" xmlns:xlink="http://www.w3.org/1999/xlink">
    <!-- Generator: Sketch 50.2 (55047) - http://www.bohemiancoding.com/sketch -->
    <title>Group</title>
    <desc>Created with Sketch.</desc>
    <defs>
        <linearGradient x1="0%" y1="0%" x2="100.132178%" y2="99.1504913%" id="linearGradient-1">
            <stop stop-color="#E63946" offset="0%"></stop>
            <stop stop-color="#E63946" offset="100%"></stop>
        </linearGradient>
    </defs>
    <g id="Welcome" stroke="none" stroke-width="1" fill="none" fill-rule="evenodd">
        <g id="Group">
            <path d="M9,27.432 C9,28.5600056 8.89200108,29.5739955 8.676,30.474 C8.45999892,31.3740045 8.10000252,32.1419968 7.596,32.778 C7.09199748,33.4140032 6.42600414,33.9059983 5.598,34.254 C4.76999586,34.6020017 3.74400612,34.776 2.52,34.776 C2.11199796,34.776 1.69200216,34.7580002 1.26,34.722 C0.82799784,34.6859998 0.40800204,34.6080006 0,34.488 L0.288,29.7 C0.72000216,29.9160011 1.18799748,30.024 1.692,30.024 C2.14800228,30.024 2.50799868,29.9040012 2.772,29.664 C3.03600132,29.4239988 3.2279994,29.1240018 3.348,28.764 C3.4680006,28.4039982 3.53999988,28.020002 3.564,27.612 C3.58800012,27.203998 3.6,26.8320017 3.6,26.496 L3.6,8.64 L9,8.64 L9,27.432 Z M3.168,3.132 C3.168,2.26799568 3.47399694,1.53000306 4.086,0.918 C4.69800306,0.30599694 5.43599568,0 6.3,0 C7.16400432,0 7.90199694,0.30599694 8.514,0.918 C9.12600306,1.53000306 9.432,2.26799568 9.432,3.132 C9.432,3.99600432 9.12600306,4.73399694 8.514,5.346 C7.90199694,5.95800306 7.16400432,6.264 6.3,6.264 C5.43599568,6.264 4.69800306,5.95800306 4.086,5.346 C3.47399694,4.73399694 3.168,3.99600432 3.168,3.132 Z M22.788,13.788 C21.995996,12.8039951 20.9520065,12.312 19.656,12.312 C19.1999977,12.312 18.7560022,12.4199989 18.324,12.636 C17.8919978,12.8520011 17.676,13.2239974 17.676,13.752 C17.676,14.1840022 17.8979978,14.501999 18.342,14.706 C18.7860022,14.910001 19.3499966,15.0899992 20.034,15.246 C20.7180034,15.4020008 21.4499961,15.5699991 22.23,15.75 C23.0100039,15.9300009 23.7419966,16.2119981 24.426,16.596 C25.1100034,16.9800019 25.6739978,17.5019967 26.118,18.162 C26.5620022,18.8220033 26.784,19.7039945 26.784,20.808 C26.784,21.9360056 26.5380025,22.8659963 26.046,23.598 C25.5539975,24.3300037 24.9240038,24.9179978 24.156,25.362 C23.3879962,25.8060022 22.5240048,26.1179991 21.564,26.298 C20.6039952,26.4780009 19.6560047,26.568 18.72,26.568 C17.4959939,26.568 16.2600062,26.3940017 15.012,26.046 C13.7639938,25.6979983 12.7080043,25.0800044 11.844,24.192 L15.12,20.556 C15.6240025,21.1800031 16.1819969,21.6539984 16.794,21.978 C17.4060031,22.3020016 18.1199959,22.464 18.936,22.464 C19.5600031,22.464 20.1239975,22.3740009 20.628,22.194 C21.1320025,22.0139991 21.384,21.6840024 21.384,21.204 C21.384,20.7479977 21.1620022,20.4060011 20.718,20.178 C20.2739978,19.9499989 19.7100034,19.7580008 19.026,19.602 C18.3419966,19.4459992 17.6100039,19.2780009 16.83,19.098 C16.0499961,18.9179991 15.3180034,18.6480018 14.634,18.288 C13.9499966,17.9279982 13.3860022,17.4180033 12.942,16.758 C12.4979978,16.0979967 12.276,15.2160055 12.276,14.112 C12.276,13.0799948 12.4859979,12.1920037 12.906,11.448 C13.3260021,10.7039963 13.8779966,10.0920024 14.562,9.612 C15.2460034,9.1319976 16.0319956,8.77800114 16.92,8.55 C17.8080044,8.32199886 18.7079954,8.208 19.62,8.208 C20.7720058,8.208 21.9359941,8.37599832 23.112,8.712 C24.2880059,9.04800168 25.2839959,9.64799568 26.1,10.512 L22.788,13.788 Z M51.384,14.084 C51.1199987,13.6999981 50.7480024,13.3820013 50.268,13.13 C49.7879976,12.8779987 49.2720028,12.752 48.72,12.752 C47.3519932,12.752 46.2900038,13.1599959 45.534,13.976 C44.7779962,14.7920041 44.4,15.8599934 44.4,17.18 C44.4,18.5000066 44.7779962,19.5679959 45.534,20.384 C46.2900038,21.2000041 47.3519932,21.608 48.72,21.608 C49.320003,21.608 49.8359978,21.4760013 50.268,21.212 C50.7000022,20.9479987 51.0719984,20.6360018 51.384,20.276 L54.948,24.02 C54.1079958,24.8840043 53.1180057,25.4899983 51.978,25.838 C50.8379943,26.1860017 49.7520052,26.36 48.72,26.36 C47.3759933,26.36 46.1100059,26.1440022 44.922,25.712 C43.7339941,25.2799978 42.7020044,24.662004 41.826,23.858 C40.9499956,23.053996 40.2600025,22.0880056 39.756,20.96 C39.2519975,19.8319944 39,18.572007 39,17.18 C39,15.787993 39.2519975,14.5280056 39.756,13.4 C40.2600025,12.2719944 40.9499956,11.306004 41.826,10.502 C42.7020044,9.69799598 43.7339941,9.08000216 44.922,8.648 C46.1100059,8.21599784 47.3759933,8 48.72,8 C49.7520052,8 50.8379943,8.17399826 51.978,8.522 C53.1180057,8.87000174 54.1079958,9.47599568 54.948,10.34 L51.384,14.084 Z" id="js-c-copy" fill="url(#linearGradient-1)"></path>
            <circle id="Oval" fill="#457A9D" cx="32.5" cy="17.5" r="2.5"></circle>
        </g>
    </g>
</svg>